Widths-Original.ufo
<glyph name="period" format="1">
  <advance width="156"/>
  <unicode hex="002E"/>
  <outline>
    <contour>
      <point x="20" y="-16" type="line"/>
      <point x="20" y="100" type="line"/>
      <point x="136" y="100" type="line"/>
      <point x="136" y="-16" type="line"/>
    </contour>
  </outline>
</glyph>
<glyph name="one" format="1">
  <advance width="261"/>
  <unicode hex="0031"/>
  <outline>
    <contour>
      <point x="20" y="0" type="line"/>
      <point x="20" y="754" type="line"/>
      <point x="241" y="754" type="line"/>
      <point x="241" y="0" type="line"/>
    </contour>
  </outline>
</glyph>
<glyph name="two" format="1">
  <advance width="527"/>
  <unicode hex="0032"/>
  <outline>
    <contour>
      <point x="20" y="0" type="line"/>
      <point x="20" y="754" type="line"/>
      <point x="507" y="754" type="line"/>
      <point x="507" y="0" type="line"/>
    </contour>
  </outline>
</glyph>
<glyph name="four" format="1">
  <advance width="588"/>
  <unicode hex="0034"/>
  <outline>
    <contour>
      <point x="20" y="0" type="line"/>
      <point x="20" y="754" type="line"/>
      <point x="568" y="754" type="line"/>
      <point x="568" y="0" type="line"/>
    </contour>
  </outline>
</glyph>
<glyph name="five" format="1">
  <advance width="549"/>
  <unicode hex="0035"/>
  <outline>
    <contour>
      <point x="20" y="0" type="line"/>
      <point x="20" y="754" type="line"/>
      <point x="529" y="754" type="line"/>
      <point x="529" y="0" type="line"/>
    </contour>
  </outline>
</glyph>
<glyph name="six" format="1">
  <advance width="540"/>
  <unicode hex="0036"/>
  <outline>
    <contour>
      <point x="20" y="0" type="line"/>
      <point x="20" y="754" type="line"/>
      <point x="520" y="754" type="line"/>
      <point x="520" y="0" type="line"/>
    </contour>
  </outline>
</glyph>
<glyph name="A" format="1">
  <advance width="760"/>
  <unicode hex="0041"/>
  <outline>
    <contour>
      <point x="20" y="0" type="line"/>
      <point x="20" y="750" type="line"/>
      <point x="740" y="750" type="line"/>
      <point x="740" y="0" type="line"/>
    </contour>
  </outline>
</glyph>
<glyph name="B" format="1">
  <advance width="478"/>
  <unicode hex="0042"/>
  <outline>
    <contour>
      <point x="20" y="0" type="line"/>
      <point x="20" y="750" type="line"/>
      <point x="458" y="750" type="line"/>
      <point x="458" y="0" type="line"/>
    </contour>
  </outline>
</glyph>
<glyph name="C" format="1">
  <advance width="631"/>
  <unicode hex="0043"/>
  <outline>
    <contour>
      <point x="20" y="0" type="line"/>
      <point x="20" y="750" type="line"/>
      <point x="611" y="750" type="line"/>
      <point x="611" y="0" type="line"/>
    </contour>
  </outline>
</glyph>
<glyph name="L" format="1">
  <advance width="363"/>
  <unicode hex="004C"/>
  <outline>
    <contour>
      <point x="20" y="0" type="line"/>
      <point x="20" y="750" type="line"/>
      <point x="343" y="750" type="line"/>
      <point x="343" y="0" type="line"/>
    </contour>
  </outline>
</glyph>
<glyph name="P" format="1">
  <advance width="452"/>
  <unicode hex="0050"/>
  <outline>
    <contour>
      <point x="20" y="0" type="line"/>
      <point x="20" y="750" type="line"/>
      <point x="432" y="750" type="line"/>
      <point x="432" y="0" type="line"/>
    </contour>
  </outline>
</glyph>
<glyph name="X" format="1">
  <advance width="613"/>
  <unicode hex="0058"/>
  <outline>
    <contour>
      <point x="20" y="0" type="line"/>
      <point x="20" y="750" type="line"/>
      <point x="593" y="750" type="line"/>
      <point x="593" y="0" type="line"/>
    </contour>
  </outline>
</glyph>
<glyph name="b" format="1">
  <advance width="515"/>
  <unicode hex="0062"/>
  <outline>
    <contour>
      <point x="20" y="0" type="line"/>
      <point x="20" y="865" type="line"/>
      <point x="495" y="865" type="line"/>
      <point x="495" y="0" type="line"/>
    </contour>
  </outline>
</glyph>
<glyph name="k" format="1">
  <advance width="445"/>
  <unicode hex="006B"/>
  <outline>
    <contour>
      <point x="20" y="0" type="line"/>
      <point x="20" y="865" type="line"/>
      <point x="425" y="865" type="line"/>
      <point x="425" y="0" type="line"/>
    </contour>
  </outline>
</glyph>
<glyph name="l" format="1">
  <advance width="130"/>
  <unicode hex="006C"/>
  <outline>
    <contour>
      <point x="20" y="0" type="line"/>
      <point x="20" y="865" type="line"/>
      <point x="110" y="865" type="line"/>
      <point x="110" y="0" type="line"/>
    </contour>
  </outline>
</glyph>
<glyph name="n" format="1">
  <advance width="439"/>
  <unicode hex="006E"/>
  <outline>
    <contour>
      <point x="20" y="0" type="line"/>
      <point x="20" y="480" type="line"/>
      <point x="419" y="480" type="line"/>
      <point x="419" y="0" type="line"/>
    </contour>
  </outline>
</glyph>
<glyph name="o" format="1">
  <advance width="540"/>
  <unicode hex="006F"/>
  <outline>
    <contour>
      <point x="20" y="0" type="line"/>
      <point x="20" y="480" type="line"/>
      <point x="520" y="480" type="line"/>
      <point x="520" y="0" type="line"/>
    </contour>
  </outline>
</glyph>
<glyph name="r" format="1">
  <advance width="335"/>
  <unicode hex="0072"/>
  <outline>
    <contour>
      <point x="20" y="0" type="line"/>
      <point x="20" y="480" type="line"/>
      <point x="315" y="480" type="line"/>
      <point x="315" y="0" type="line"/>
    </contour>
  </outline>
</glyph>
<glyph name="s" format="1">
  <advance width="363"/>
  <unicode hex="0073"/>
  <outline>
    <contour>
      <point x="20" y="0" type="line"/>
      <point x="20" y="480" type="line"/>
      <point x="343" y="480" type="line"/>
      <point x="343" y="0" type="line"/>
    </contour>
  </outline>
</glyph>
<glyph name="u" format="1">
  <advance width="436"/>
  <unicode hex="0075"/>
  <outline>
    <contour>
      <point x="20" y="0" type="line"/>
      <point x="20" y="480" type="line"/>
      <point x="416" y="480" type="line"/>
      <point x="416" y="0" type="line"/>
    </contour>
  </outline>
</glyph>
<glyph name="v" format="1">
  <advance width="511"/>
  <unicode hex="0076"/>
  <outline>
    <contour>
      <point x="20" y="0" type="line"/>
      <point x="20" y="480" type="line"/>
      <point x="491" y="480" type="line"/>
      <point x="491" y="0" type="line"/>
    </contour>
  </outline>
</glyph>
<glyph name="w" format="1">
  <advance width="791"/>
  <unicode hex="0077"/>
  <outline>
    <contour>
      <point x="20" y="0" type="line"/>
      <point x="20" y="480" type="line"/>
      <point x="771" y="480" type="line"/>
      <point x="771" y="0" type="line"/>
    </contour>
  </outline>
</glyph>
<glyph name="z" format="1">
  <advance width="532"/>
  <unicode hex="007A"/>
  <outline>
    <contour>
      <point x="20" y="0" type="line"/>
      <point x="20" y="480" type="line"/>
      <point x="512" y="480" type="line"/>
      <point x="512" y="0" type="line"/>
    </contour>
  </outline>
</glyph>
